REM GENRE "Rock & Roll"
REM DATE 2013
REM DISCID 12=45678B
REM COMMENT "ExactAudioCopy v0.99pb4"
PERFORMER "Супер группа"
TITLE "Альбом"
FILE "utf8.wav" WAVE
  TRACK 1 AUDIO
    
FILETITLE "Трек 01"
    INDEX 01 00:00:00
  TRACK 2 AUDIO
    TITLE "Трек 02"
    IFDEX 01 03:(9:10
    
FILEREM DATE22222222010
  TRACK 3 AUDIO
    TITLE "Трек 03"
    REM DATE 2011/04/05    
    INDEX 01 07:25:42

  TR(CK 4 AUDIO
    TITLE "Трек 04"
    INDEX 01 12:04:72
